<?xml version="1.0" encoding="utf-8"?>
<!-- Generator: Adobe Illustrator 23.0.6, SVG Export Plug-In . SVG Version: 6.00 Build 0)  -->
<svg version="1.0"
	 id="Capa_1" xmlns:cc="http://creativecommons.org/ns#" xmlns:dc="http://purl.org/dc/elements/1.1/" xmlns:inkscape="http://www.inkscape.org/namespaces/inkscape" xmlns:rdf="http://www.w3.org/1999/02/22-rdf-syntax-ns#" xmlns:sodipodi="http://sodipodi.sourceforge.net/DTD/sodipodi-0.dtd" xmlns:svg="http://www.w3.org/2000/svg"
	 xmlns="http://www.w3.org/2000/svg" xmlns:xlink="http://www.w3.org/1999/xlink" x="0px" y="0px" viewBox="0 0 50.3 57"
	 style="enable-background:new 0 0 50.3 57;" xml:space="preserve">
<style type="text/css">
	.st0{fill:#FA9773;}
	.st1{fill:#DD7657;}
</style>
<sodipodi:namedview  bordercolor="#666666" borderopacity="1" fit-margin-bottom="0" fit-margin-left="0" fit-margin-right="0" fit-margin-top="0" gridtolerance="10" guidetolerance="10" id="namedview25" inkscape:current-layer="Capa_1" inkscape:cx="85.404015" inkscape:cy="27.05" inkscape:pageopacity="0" inkscape:pageshadow="2" inkscape:window-height="894" inkscape:window-maximized="0" inkscape:window-width="1621" inkscape:window-x="0" inkscape:window-y="0" inkscape:zoom="4.24" objecttolerance="10" pagecolor="#000000" showgrid="false" showguides="false">
	</sodipodi:namedview>
<g id="g13" transform="translate(-3.6992633,-8.2892857)">
	<g id="g15">
		<path id="path17" inkscape:connector-curvature="0" class="st0" d="M33,65.3c-0.1,0-0.1,0-0.2,0H16.5C9.7,65.2,4.1,59.9,3.7,53.2
			V53v-1.6C3.6,36,13.7,16.5,22,10.7c4.3-3,9.4-3.2,14.5-0.6C46.5,15.4,54,30.2,54,40c0,6.2-2.9,10.6-7.9,12.6
			c0,2.5-0.8,4.9-2.2,7.1C41.5,63.2,37.4,65.3,33,65.3z M32.8,59.7c2.6,0,5-1.2,6.4-3.2c0.6-0.8,1-1.8,1.1-2.7c-0.3,0-0.6,0-1,0h-15
			c-1.5,0-2.5-0.3-2.7-0.3c-2.1-0.6-3.9-1.9-4.9-3.8c-0.9-1.7-1.1-3.7-0.5-5.6c0.1-0.3,0.2-0.6,0.3-0.8L23,28.7
			c1.3-3,4.2-4.9,7.5-4.9s6.3,1.7,7.7,4.7l0.1,0.3L44.9,47c3.5-1.9,3.5-5.5,3.5-7c0-8.7-7.2-21-14.5-24.8c-3.2-1.7-6-1.6-8.6,0.2
			c-6.3,4.4-16,21.8-16,36.1V53c0.3,3.7,3.5,6.7,7.2,6.7C16.5,59.7,32.8,59.7,32.8,59.7z M23.2,48c0,0,0.5,0.1,1.2,0.1h14.9L33,30.8
			c-0.7-1.3-2-1.4-2.4-1.3c-0.4,0-1.8,0.1-2.4,1.5l-6.4,14.6c0,0.1-0.1,0.2-0.1,0.3c-0.1,0.4-0.1,0.8,0.1,1.2
			C22.1,47.5,22.6,47.8,23.2,48L23.2,48z"/>
	</g>
</g>
<g id="g19" transform="translate(-3.6992633,-8.2892857)">
	<path id="path21" inkscape:connector-curvature="0" class="st1" d="M39.7,55.8c2.3,0,4.4-0.4,6.2-1c0.1-0.7,0.2-1.5,0.2-2.2
		c-1.7,0.7-3.6,1-5.8,1.1C40.3,54.4,40.1,55.1,39.7,55.8z"/>
	<path id="path23" inkscape:connector-curvature="0" class="st1" d="M44.9,47l-0.7-1.9c-1.1,0.6-2.6,1-4.9,1h-0.8l0.7,2l0,0
		C41.8,48.1,43.6,47.7,44.9,47z"/>
</g>
</svg>
