<?xml version="1.0" encoding="utf-8"?>
<!-- Generator: Adobe Illustrator 23.0.3, SVG Export Plug-In . SVG Version: 6.00 Build 0)  -->
<svg version="1.0" id="icon_now_playing" xmlns="http://www.w3.org/2000/svg" xmlns:xlink="http://www.w3.org/1999/xlink" x="0px"
	 y="0px" viewBox="0 0 612 792" style="enable-background:new 0 0 612 792;" xml:space="preserve">
<title>Now Playing</title>
<path style="fill:rgb(250, 151, 115)" d="M570.9,243.1C530,172.3,464.1,121.7,385.2,100.6c-78.9-21.1-161.3-10.3-232.1,30.6C82.3,172,31.7,237.9,10.6,316.8
	c-21.1,78.9-10.3,161.3,30.6,232.1C82,619.7,147.9,670.3,226.8,691.4c26.4,7.1,53.1,10.6,79.7,10.6c53,0,105.3-13.9,152.4-41.1
	c70.8-40.8,121.4-106.8,142.5-185.7C622.6,396.2,611.7,313.8,570.9,243.1z M570.7,466.9c-18.9,70.7-64.3,129.8-127.7,166.4
	c-63.4,36.6-137.2,46.3-207.9,27.4C164.4,641.7,105.3,596.4,68.7,533c-36.6-63.4-46.3-137.2-27.4-207.9
	c18.9-70.7,64.3-129.8,127.7-166.4c42.2-24.4,89.1-36.8,136.6-36.8c23.8,0,47.8,3.1,71.4,9.5c70.7,18.9,129.8,64.3,166.4,127.7
	C579.9,322.4,589.6,396.2,570.7,466.9z M452.8,367.1L256.1,253.6c-10.4-6-22.9-6-33.3,0c-10.4,6-16.7,16.8-16.7,28.9v227.1
	c0,12,6.2,22.8,16.7,28.9c5.2,3,10.9,4.5,16.7,4.5c5.7,0,11.4-1.5,16.7-4.5l196.7-113.5c10.4-6,16.7-16.8,16.7-28.9
	C469.4,384,463.2,373.2,452.8,367.1z M436.8,397.3L240.2,510.8c-0.2,0.1-0.7,0.4-1.5,0c-0.7-0.4-0.7-1-0.7-1.3V282.5
	c0-0.3,0-0.9,0.7-1.3c0.3-0.2,0.5-0.2,0.8-0.2c0.3,0,0.6,0.1,0.7,0.2l196.7,113.5c0.2,0.1,0.7,0.4,0.7,1.3S437.1,397.1,436.8,397.3z
	 M494,250.7c-37.9-48.9-94.8-81.8-156.2-90.2c-8.7-1.2-16.7,4.9-17.9,13.6c-1.2,8.7,4.9,16.7,13.6,17.9
	c53.2,7.3,102.5,35.8,135.3,78.1c3.1,4.1,7.8,6.2,12.6,6.2c3.4,0,6.8-1.1,9.7-3.3C498.1,267.7,499.4,257.7,494,250.7z"/>
</svg>
