<?xml version="1.0" encoding="utf-8"?>
<!-- Generator: Adobe Illustrator 23.0.3, SVG Export Plug-In . SVG Version: 6.00 Build 0)  -->
<svg version="1.0" id="iconSearch" xmlns="http://www.w3.org/2000/svg" xmlns:xlink="http://www.w3.org/1999/xlink" x="0px" y="0px"
	 viewBox="0 0 612 792" style="enable-background:new 0 0 612 792;" xml:space="preserve">
<title>Search</title>
<path d="M447,462.9C471,425.3,485,380.7,485,332.7C485,198.7,376.4,90,242.6,90C108.5,90,0,198.7,0,332.7s108.5,242.7,242.4,242.7
	c48.6,0,93.9-14.3,131.8-38.9l11-7.6L558.3,702l53.7-54.7L439.1,474.3L447,462.9z M378.4,197.1c36.2,36.2,56.1,84.3,56.1,135.5
	s-19.9,99.3-56.1,135.5s-84.3,56.1-135.5,56.1s-99.3-19.9-135.5-56.1s-56.1-84.3-56.1-135.5s19.9-99.3,56.1-135.5
	S191.7,141,242.9,141S342.2,160.9,378.4,197.1z"/>
</svg>
