<?xml version="1.0" encoding="utf-8"?>
<!-- Generator: Adobe Illustrator 23.0.3, SVG Export Plug-In . SVG Version: 6.00 Build 0)  -->
<svg version="1.1" id="icon_top_rated" xmlns="http://www.w3.org/2000/svg" xmlns:xlink="http://www.w3.org/1999/xlink" x="0px"
	 y="0px" viewBox="0 0 612 792" style="enable-background:new 0 0 612 792;" xml:space="preserve">
<title>Top Rated</title>
<path style="fill:#bc3b69" d="M505.4,196.6c-1.5-1.5-3.2-2.6-5.1-3.4c-1.9-0.8-3.9-1.2-6-1.2l-313.9,0c-8.7,0-15.7,7-15.7,15.7c0,8.7,7,15.7,15.7,15.7
	l276.1,0L106.6,573.3c-6.1,6.1-6.1,16,0,22.1c3.1,3.1,7.1,4.6,11.1,4.6c4,0,8-1.5,11.1-4.6l349.9-349.9v276.1
	c0,8.7,7,15.7,15.7,15.7c8.7,0,15.7-7,15.7-15.7V207.7c0-2-0.4-4-1.2-6C508,199.8,506.9,198.1,505.4,196.6z"/>
</svg>