<?xml version="1.0" encoding="utf-8"?>
<!-- Generator: Adobe Illustrator 23.0.3, SVG Export Plug-In . SVG Version: 6.00 Build 0)  -->
<svg version="1.1" id="icon_upcoming" xmlns="http://www.w3.org/2000/svg" xmlns:xlink="http://www.w3.org/1999/xlink" x="0px"
	 y="0px" viewBox="0 0 612 792" style="enable-background:new 0 0 612 792;" xml:space="preserve">
<title>Upcoming</title>
<path style="fill:rgb(250, 151, 115)" d="M568.7,192.6c23.2,0,42.1,18.9,42.1,42.1v344.3c0,23.2-18.9,42.1-42.1,42.1H42.1C18.9,621,0,602.1,0,578.9V234.6
	c0-23.2,18.9-42.1,42.1-42.1h92.7v-16.2c0-7.7,6.3-14,14-14s14,6.3,14,14v16.2h76.4v-16.2c0-7.7,6.3-14,14-14c7.7,0,14,6.3,14,14
	v16.2h76.3v-16.2c0-7.7,6.3-14,14-14c7.7,0,14,6.3,14,14v16.2H448v-16.2c0-7.7,6.3-14,14-14c7.7,0,14,6.3,14,14v16.2H568.7z
	 M494,338.7c-8.1,0-14.7-6.6-14.7-14.7s6.6-14.7,14.7-14.7c8.1,0,14.7,6.6,14.7,14.7S502.1,338.7,494,338.7z M399.7,338.7
	c-8.1,0-14.7-6.6-14.7-14.7s6.6-14.7,14.7-14.7c8.1,0,14.7,6.6,14.7,14.7S407.8,338.7,399.7,338.7z M305.4,338.7
	c-8.1,0-14.7-6.6-14.7-14.7s6.6-14.7,14.7-14.7c8.1,0,14.7,6.6,14.7,14.7S313.5,338.7,305.4,338.7z M211.1,338.7
	c-8.1,0-14.7-6.6-14.7-14.7s6.6-14.7,14.7-14.7c8.1,0,14.7,6.6,14.7,14.7S219.2,338.7,211.1,338.7z M116.8,338.7
	c-8.1,0-14.7-6.6-14.7-14.7s6.6-14.7,14.7-14.7c8.1,0,14.7,6.6,14.7,14.7S124.9,338.7,116.8,338.7z M494,433
	c-8.1,0-14.7-6.6-14.7-14.7s6.6-14.7,14.7-14.7c8.1,0,14.7,6.6,14.7,14.7S502.1,433,494,433z M399.7,433c-8.1,0-14.7-6.6-14.7-14.7
	s6.6-14.7,14.7-14.7c8.1,0,14.7,6.6,14.7,14.7S407.8,433,399.7,433z M305.4,433c-8.1,0-14.7-6.6-14.7-14.7s6.6-14.7,14.7-14.7
	c8.1,0,14.7,6.6,14.7,14.7S313.5,433,305.4,433z M116.8,433c-8.1,0-14.7-6.6-14.7-14.7s6.6-14.7,14.7-14.7c8.1,0,14.7,6.6,14.7,14.7
	S124.9,433,116.8,433z M494,527.3c-8.1,0-14.7-6.6-14.7-14.7c0-8.1,6.6-14.7,14.7-14.7c8.1,0,14.7,6.6,14.7,14.7
	C508.7,520.7,502.1,527.3,494,527.3z M399.7,527.3c-8.1,0-14.7-6.6-14.7-14.7c0-8.1,6.6-14.7,14.7-14.7c8.1,0,14.7,6.6,14.7,14.7
	C414.4,520.7,407.8,527.3,399.7,527.3z M305.4,527.3c-8.1,0-14.7-6.6-14.7-14.7c0-8.1,6.6-14.7,14.7-14.7c8.1,0,14.7,6.6,14.7,14.7
	C320.1,520.7,313.5,527.3,305.4,527.3z M211.1,527.3c-8.1,0-14.7-6.6-14.7-14.7c0-8.1,6.6-14.7,14.7-14.7c8.1,0,14.7,6.6,14.7,14.7
	C225.8,520.7,219.2,527.3,211.1,527.3z M116.8,527.3c-8.1,0-14.7-6.6-14.7-14.7c0-8.1,6.6-14.7,14.7-14.7c8.1,0,14.7,6.6,14.7,14.7
	C131.5,520.7,124.9,527.3,116.8,527.3z M255.4,361.4c7,0,12.6,5.7,12.6,12.6v88.6c0,7-5.6,12.6-12.6,12.6h-88.6
	c-7,0-12.6-5.6-12.6-12.6V374c0-7,5.6-12.6,12.6-12.6H255.4z M242.8,450L242.8,450l0-63.4h-63.4V450H242.8z M568.7,592.9
	c7.7,0,14-6.3,14-14h0V234.6c0-7.7-6.3-14-14-14H476v16.2c0,7.7-6.3,14-14,14c-7.7,0-14-6.3-14-14v-16.2h-76.4v16.2
	c0,7.7-6.3,14-14,14c-7.7,0-14-6.3-14-14v-16.2h-76.3v16.2c0,7.7-6.3,14-14,14s-14-6.3-14-14v-16.2h-76.4v16.2c0,7.7-6.3,14-14,14
	s-14-6.3-14-14v-16.2H42.1c-7.7,0-14,6.3-14,14v344.3c0,7.7,6.3,14,14,14H568.7z"/>
</svg>